# AST/ASF file generated using VICON BodyLanguage
# -----------------------------------------------
:version 1.10
:name VICON
:units
  mass 1.0
  length 0.45
  angle deg
:documentation
   .ast/.asf automatically generated from VICON data using
   VICON BodyBuilder and BodyLanguage model FoxedUp or BRILLIANT.MOD
:root
   order TX TY TZ RX RY RZ
   axis XYZ
   position 0 0 0  
   orientation 0 0 0 
:bonedata
  begin
     id 1 
     name lhipjoint
     direction 0.714689 -0.624256 0.315473 
     length 2.45343 
     axis 0 0 0  XYZ
  end
  begin
     id 2 
     name lfemur
     direction 0.34202 -0.939693 0  
     length 6.59069  
     axis 0 0 20  XYZ
    dof rx ry rz
    limits (-160.0 20.0)
           (-70.0 70.0)
           (-60.0 70.0)
  end
  begin
     id 3 
     name ltibia
     direction 0.34202 -0.939693 0   
     length 6.73476   
     axis 0 0 20   XYZ
    dof rx
    limits (-10.0 170.0)
  end
  begin
     id 4 
     name lfoot
     direction 0.0718085 -0.197292 0.977711   
     length 1.52607   
     axis -90 7.62852e-016 20   XYZ
    dof rx rz
    limits (-45.0 90.0)
           (-70.0 20.0)
  end
  begin
     id 5 
     name ltoes
     direction 1.53553e-011 -4.22024e-011 1   
     length 0.777832   
     axis -90 7.62852e-016 20   XYZ
    dof rx
    limits (-90.0 20.0)
  end
  begin
     id 6 
     name rhipjoint
     direction -0.727419 -0.612432 0.309497   
     length 2.50079  
     axis 0 0 0  XYZ 
  end
  begin
     id 7 
     name rfemur
     direction -0.34202 -0.939693 0   
     length 6.51665   
     axis 0 0 -20   XYZ
    dof rx ry rz
    limits (-160.0 20.0)
           (-70.0 70.0)
           (-70.0 60.0)
  end
  begin
     id 8 
     name rtibia
     direction -0.34202 -0.939693 0   
     length 6.48919   
     axis 0 0 -20   XYZ
    dof rx
    limits (-10.0 170.0)
 end
 begin
     id 9 
     name rfoot
     direction -0.112205 -0.308282 0.944655   
     length 1.68717  
     axis -90 -7.62852e-016 -20   XYZ
    dof rx rz
    limits (-45.0 90.0)
           (-20.0 70.0)
  end
  begin
     id 10 
     name rtoes
     direction -1.53583e-011 -4.21993e-011 1   
     length 0.846859   
     axis -90 -7.62852e-016 -20   XYZ
    dof rx
    limits (-90.0 20.0)
  end
  begin
     id 11 
     name lowerback
     direction -0.00119603 0.996364 -0.0851956   
     length 1.67242   
     axis 0 0 0   XYZ
    dof rx ry rz
    limits (-20.0 45.0)
           (-30.0 30.0)
           (-30.0 30.0)
  end
  begin
     id 12 
     name upperback
     direction -0.00531001 0.998318 0.0577248   
     length 1.64819   
     axis 0 0 0   XYZ
    dof rx ry rz
    limits (-20.0 45.0)
           (-30.0 30.0)
           (-30.0 30.0)
  end
  begin
     id 13 
     name thorax
     direction -0.00653676 0.995132 0.0983291   
     length 1.67429   
     axis 0 0 0   XYZ
    dof rx ry rz
    limits (-20.0 45.0)
           (-30.0 30.0)
           (-30.0 30.0)
  end
  begin
     id 14 
     name lowerneck
     direction 0.0141424 0.999886 0.00525412   
     length 1.59623   
     axis 0 0 0   XYZ
    dof rx ry rz
    limits (-20.0 45.0)
           (-30.0 30.0)
           (-30.0 30.0)
  end
  begin
     id 15 
     name upperneck
     direction -0.0640064 0.987178 -0.146232   
     length 1.59576   
     axis 0 0 0   XYZ
    dof rx ry rz
    limits (-20.0 45.0)
           (-30.0 30.0)
           (-30.0 30.0)
  end
  begin
     id 16
     name head
     direction -0.0222942 0.998496 -0.0500859  
     length 1.60959  
     axis 0 0 0   XYZ
    dof rx ry rz
    limits (-20.0 45.0)
           (-30.0 30.0)
           (-30.0 30.0)
  end
  begin
     id 17 
     name lclavicle
     direction 0.908549 0.392612 0.142806  
     length 2.80649  
     axis 0 0 0   XYZ
    dof ry rz
    limits (-20.0 10.0)
           (0.0 20.0)
  end
  begin
     id 18 
     name lhumerus
     direction 1 -4.48968e-011 1.08832e-028   
     length 4.2884   
     axis -180 -30 -90   XYZ
    dof rx ry rz
    limits (-60.0 90.0)
           (-90.0 90.0)
           (-90.0 90.0)
  end
  begin
     id 19
     name lradius
     direction 1 -4.48952e-011 -3.02642e-028   
     length 3.06552   
     axis -180 -30 -90   XYZ
    dof rx
    limits (-10.0 170.0)
  end
  begin
     id 20
     name lwrist
     direction 1 -4.49014e-011 1.58672e-027   
     length 1.53276   
     axis -1.65735e-015 90 90   XYZ
    dof ry
    limits (-180.0 0.0)
 end
  begin
     id 21 
     name lhand
     direction 1 -4.48928e-011 3.17344e-027   
     length 0.753045   
     axis -2.02492e-015 90 90   XYZ
    dof rx rz
    limits (-90.0 90.0)
           (-45.0 45.0)
  end
  begin
     id 22 
     name lfingers
     direction 1 -4.48958e-011 6.34687e-027   
     length 0.607124   
     axis -4.04985e-015 90 90   XYZ
    dof rx
    limits (0.0 90.0)
  end
  begin
     id 23
     name lthumb
     direction 0.707107 -6.34905e-011 0.707107   
     length 0.871712   
     axis -90 45 2.85299e-015   XYZ
    dof rx rz
    limits (-45.0 45.0)
           (-45.0 45.0)
  end
  begin
     id 24 
     name rclavicle
     direction -0.885098 0.45949 0.0739604   
     length 2.9478  
     axis 0 0 0   XYZ 
    dof ry rz
    limits (-10.0 20.0)
           (-20.0 0.0)
  end
  begin
     id 25 
     name rhumerus
     direction -1 -4.4898e-011 -2.61739e-027  
     length 4.52172   
     axis -180 30 90   XYZ
    dof rx ry rz
    limits (-90.0 60.0)
           (-90.0 90.0)
           (-90.0 90.0)
  end
  begin
     id 26 
     name rradius
     direction -1 -4.48945e-011 9.02552e-028   
     length 2.8914   
     axis -180 30 90   XYZ
    dof rx
    limits (-10.0 170.0)
  end
  begin
     id 27 
     name rwrist
     direction -1 -4.49018e-011 1.58672e-027   
     length 1.4457   
     axis -1.65735e-015 -90 -90   XYZ
    dof ry
    limits (-180.0 0.0)
  end
  begin
     id 28
     name rhand
     direction -1 -4.48825e-011 3.17344e-027   
     length 0.680541   
     axis -2.02492e-015 -90 -90   XYZ
    dof rx rz
    limits (-90.0 90.0)
           (-45.0 45.0)
  end
  begin
     id 29
     name rfingers
     direction -1 -4.49067e-011 6.34687e-027   
     length 0.54867   
     axis -4.04985e-015 -90 -90   XYZ
    dof rx
    limits (0.0 90.0)
  end
  begin
     id 30
     name rthumb
     direction -0.707107 -6.34833e-011 0.707107   
     length 0.787783   
     axis -90 -45 -2.85299e-015   XYZ
    dof rx rz
    limits (-45.0 45.0)
           (-45.0 45.0)
  end
:hierarchy
  begin
    root lhipjoint rhipjoint lowerback
    lhipjoint lfemur
    lfemur ltibia
    ltibia lfoot
    lfoot ltoes
    rhipjoint rfemur
    rfemur rtibia
    rtibia rfoot
    rfoot rtoes
    lowerback upperback
    upperback thorax
    thorax lowerneck lclavicle rclavicle
    lowerneck upperneck
    upperneck head
    lclavicle lhumerus
    lhumerus lradius
    lradius lwrist
    lwrist lhand lthumb
    lhand lfingers
    rclavicle rhumerus
    rhumerus rradius
    rradius rwrist
    rwrist rhand rthumb
    rhand rfingers
  end

#!OML:ASF E:\emotionWalksFemale\Project 1\Capture day 1\Session 1\Female1.ASF
:FULLY-SPECIFIED
:DEGREES
1063
root 8.26711 13.8764 -32.3068 171.732 -9.76151 183.139
lowerback 14.7716 7.9123 6.80803
upperback 2.29716 11.4112 4.3933
thorax -5.30298 5.31232 -1.20853
lowerneck 7.89378 -10.8902 -9.76445
upperneck 2.70968 -15.6313 -1.67669
head 0.177521 -8.0053 1.29549
rclavicle -2.37796e-014 -8.74653e-014
rhumerus 31.986 27.0124 -63.8867
rradius 39.7488
rwrist 17.9322
rhand -13.3438 -48.1456
rfingers 7.12502
rthumb 12.7618 282.264
lclavicle -2.37796e-014 -8.74653e-014
lhumerus -57.7187 14.8577 8.47063
lradius 43.8403
lwrist 4.42685
lhand -19.7592 -25.7723
lfingers 7.12502
lthumb 6.57232 4.10568
rfemur -6.1171 -7.16471 31.7591
rtibia 57.1591
rfoot -32.3269 -6.89422
rtoes 8.37007
lfemur -33.7273 -7.69595 -26.6257
ltibia 56.706
lfoot -17.3935 11.5402
ltoes 12.277
1064
root 8.24438 13.9176 -32.4031 171.611 -10.2302 183.031
lowerback 14.4855 7.85649 6.9422
upperback 2.07753 11.3714 4.37496
thorax -5.3557 5.29563 -1.26755
lowerneck 7.76169 -11.1033 -10.0587
upperneck 3.89313 -15.9363 -1.91645
head 0.590428 -8.22737 1.2022
rclavicle -3.94463e-014 7.95139e-015
rhumerus 31.7049 27.4688 -63.5452
rradius 40.3269
rwrist 17.113
rhand -14.1289 -47.5928
rfingers 7.12502
rthumb 12.0048 282.772
lclavicle -3.94463e-014 7.95139e-015
lhumerus -57.3061 14.3463 7.70117
lradius 44.3028
lwrist 4.06175
lhand -20.4345 -25.8051
lfingers 7.12502
lthumb 5.92031 4.09214
rfemur -5.19989 -7.87546 31.2484
rtibia 56.5975
rfoot -32.0252 -6.94094
rtoes 7.7621
lfemur -32.7344 -7.6818 -26.9931
ltibia 56.0318
lfoot -17.8433 11.4569
ltoes 10.6981
1065
root 8.22516 13.948 -32.4998 171.407 -10.7603 182.824
lowerback 14.4075 7.83796 7.01389
upperback 1.84784 11.3911 4.31835
thorax -5.53352 5.30229 -1.37469
lowerneck 7.92803 -11.2214 -10.2813
upperneck 4.76848 -16.1482 -2.06356
head 0.857283 -8.38877 1.16118
rclavicle 3.08334e-014 7.63333e-014
rhumerus 31.0954 27.2763 -63.6472
rradius 40.8338
rwrist 17.7591
rhand -13.0175 -47.7073
rfingers 7.12502
rthumb 13.0763 282.723
lclavicle 3.08334e-014 7.63333e-014
lhumerus -56.9078 14.0583 7.00887
lradius 44.5453
lwrist 3.37732
lhand -20.7338 -26.1062
lfingers 7.12502
lthumb 5.63136 3.79896
rfemur -4.23654 -8.57168 30.6436
rtibia 56.1534
rfoot -31.7942 -6.41665
rtoes 8.8292
lfemur -31.7953 -7.71551 -27.3884
ltibia 55.4802
lfoot -18.1141 10.7981
ltoes 10.5812
1066
root 8.2007 13.9873 -32.6141 171.145 -11.4674 181.598
lowerback 14.2788 7.84076 6.05826
upperback 1.79016 11.2728 4.01437
thorax -5.65386 5.28208 -1.16658
lowerneck 8.59603 -11.2084 -10.5432
upperneck 5.11165 -16.2547 -1.86326
head 0.903899 -8.46986 1.29073
rclavicle 1.46107e-013 2.8625e-014
rhumerus 30.2958 26.9725 -64.1262
rradius 41.2516
rwrist 18.3062
rhand -12.3691 -47.3497
rfingers 7.12502
rthumb 13.7013 283.121
lclavicle 1.46107e-013 2.8625e-014
lhumerus -56.4428 13.6496 6.52173
lradius 45.1729
lwrist 2.89674
lhand -20.8987 -25.7393
lfingers 7.12502
lthumb 5.47214 4.17007
rfemur -2.90329 -9.37281 28.7636
rtibia 55.7923
rfoot -31.7849 -5.73266
rtoes 8.99483
lfemur -30.3233 -7.74229 -28.9363
ltibia 54.8834
lfoot -18.2666 10.336
ltoes 10.9379
1067
root 8.17926 14.015 -32.7095 171.264 -11.9507 181.439
lowerback 13.8211 7.73655 6.08215
upperback 1.49339 11.1481 3.89866
thorax -5.69944 5.23049 -1.2372
lowerneck 8.70448 -11.1897 -10.6416
upperneck 6.08429 -16.2811 -2.05228
head 1.19253 -8.54757 1.21202
rclavicle 2.89977e-014 -2.54444e-014
rhumerus 29.4747 26.9324 -64.8204
rradius 41.5962
rwrist 18.0305
rhand -12.9118 -46.3605
rfingers 7.12502
rthumb 13.1782 284.076
lclavicle 2.89977e-014 -2.54444e-014
lhumerus -56.0594 13.1712 6.13285
lradius 45.6196
lwrist 2.62911
lhand -21.1641 -25.3265
lfingers 7.12502
lthumb 5.21587 4.58928
rfemur -2.42787 -9.82992 28.2921
rtibia 55.4668
rfoot -31.6282 -5.56507
rtoes 7.62966
lfemur -29.8502 -7.6072 -29.2005
ltibia 54.4921
lfoot -18.1845 9.73511
ltoes 10.9982
1068
root 8.16328 14.0361 -32.7984 171.411 -12.348 181.734
lowerback 13.6303 7.92153 6.86594
upperback 1.10247 11.5384 3.89307
thorax -5.84006 5.39544 -1.70978
lowerneck 8.21349 -11.5308 -11.3734
upperneck 7.85516 -16.7712 -2.27924
head 1.92487 -8.9209 1.12387
rclavicle -5.07895e-014 -3.81667e-014
rhumerus 28.2915 26.3888 -64.7912
rradius 42.0737
rwrist 17.0825
rhand -13.7668 -45.8329
rfingers 7.12502
rthumb 12.354 284.552
lclavicle -5.07895e-014 -3.81667e-014
lhumerus -54.8547 12.7913 6.6925
lradius 46.0196
lwrist 2.24023
lhand -21.2838 -25.0708
lfingers 7.12502
lthumb 5.10028 4.84787
rfemur -2.10697 -10.0974 28.4455
rtibia 55.148
rfoot -31.2592 -5.05774
rtoes 7.46815
lfemur -29.637 -7.39365 -28.9149
ltibia 54.1424
lfoot -18.1662 9.00079
ltoes 11.0591
1069
root 8.14678 14.0626 -32.89 171.549 -12.8589 181.66
lowerback 13.286 7.74713 6.83588
upperback 0.693863 11.3292 3.80012
thorax -6.08937 5.28942 -1.74355
lowerneck 8.7962 -11.3851 -11.6905
upperneck 8.09542 -16.7185 -1.91678
head 1.97143 -8.92227 1.31264
rclavicle -9.34785e-014 1.90833e-014
rhumerus 27.3141 27.051 -65.3281
rradius 42.6388
rwrist 15.7899
rhand -14.8941 -45.6885
rfingers 7.12502
rthumb 11.2669 284.634
lclavicle -9.34785e-014 1.90833e-014
lhumerus -54.8894 12.1322 6.36827
lradius 46.5777
lwrist 2.05898
lhand -21.1785 -24.7939
lfingers 7.12502
lthumb 5.20203 5.12226
rfemur -1.61505 -10.4766 28.1389
rtibia 54.781
rfoot -30.6772 -4.42603
rtoes 7.11962
lfemur -29.2392 -7.1301 -29.0412
ltibia 53.8108
lfoot -18.4715 8.21137
ltoes 11.2195
1070
root 8.12821 14.093 -32.9815 171.698 -13.4505 181.371
lowerback 12.8959 7.6629 6.82156
upperback 0.412254 11.2173 3.59477
thorax -6.14364 5.24093 -1.89685
lowerneck 9.11677 -11.303 -11.7628
upperneck 8.73215 -16.6985 -1.99132
head 2.12998 -8.96363 1.29463
rclavicle -1.7011e-013 -4.53229e-014
rhumerus 26.1119 26.9897 -66.0805
rradius 43.1771
rwrist 15.1627
rhand -15.5332 -45.4329
rfingers 7.12502
rthumb 10.6504 284.857
lclavicle -1.7011e-013 -4.53229e-014
lhumerus -54.503 11.7307 6.36389
lradius 46.9334
lwrist 2.10983
lhand -20.7157 -24.3182
lfingers 7.12502
lthumb 5.64881 5.58653
rfemur -1.06531 -10.9787 27.5407
rtibia 54.3388
rfoot -30.1193 -3.9096
rtoes 6.32854
lfemur -28.6433 -6.80129 -29.4294
ltibia 53.3571
lfoot -18.9813 7.28004
ltoes 10.9781
1071
root 8.11506 14.1311 -33.0817 171.648 -14.2226 181.363
lowerback 12.5302 7.59488 7.10973
upperback 0.207274 11.1554 3.43278
thorax -6.0777 5.2091 -2.16457
lowerneck 8.79969 -11.4188 -12.1223
upperneck 9.94044 -16.8846 -2.01468
head 2.63989 -9.14577 1.25382
rclavicle 9.85972e-014 1.11319e-014
rhumerus 24.7117 26.4322 -66.8641
rradius 43.7212
rwrist 14.9659
rhand -15.8567 -45.0882
rfingers 7.12502
rthumb 10.3384 285.186
lclavicle 9.85972e-014 1.11319e-014
lhumerus -53.7467 11.5456 6.61995
lradius 47.1927
lwrist 2.40747
lhand -20.0665 -23.8766
lfingers 7.12502
lthumb 6.27564 6.01046
rfemur -0.322898 -11.5845 27.2448
rtibia 53.779
rfoot -29.5368 -3.19636
rtoes 6.89662
lfemur -27.8134 -6.41025 -29.5556
ltibia 52.7563
lfoot -19.2627 6.32906
ltoes 7.82164
1072
root 8.1014 14.1799 -33.1893 171.665 -15.5336 181.537
lowerback 11.8627 7.32766 7.42244
upperback -0.0347708 10.8041 3.34975
thorax -5.9183 5.03904 -2.28486
lowerneck 8.8973 -11.6636 -12.4532
upperneck 10.4693 -17.2868 -1.92169
head 2.87496 -9.39174 1.29795
rclavicle -5.10877e-014 1.11319e-014
rhumerus 23.2141 26.1705 -67.5155
rradius 44.3806
rwrist 14.6417
rhand -16.3577 -44.988
rfingers 7.12502
rthumb 9.8551 285.263
lclavicle -5.10877e-014 1.11319e-014
lhumerus -53.2288 11.092 7.12972
lradius 47.6634
lwrist 3.18982
lhand -19.0912 -22.9443
lfingers 7.12502
lthumb 7.21715 6.91261
rfemur 0.404834 -12.7412 27.0152
rtibia 53.18
rfoot -28.7971 -2.64535
rtoes 5.77488
lfemur -27.0054 -6.2196 -29.5586
ltibia 51.952
lfoot -19.1999 5.14274
ltoes 5.1323
1073
root 8.08628 14.2413 -33.2963 171.705 -16.1806 181.665
lowerback 11.1899 7.25287 7.66122
upperback -0.207479 10.6859 3.3219
thorax -5.68899 4.98783 -2.33794
lowerneck 8.86347 -11.5938 -12.315
upperneck 11.361 -17.216 -2.34291
head 3.1291 -9.42603 1.10247
rclavicle -5.79457e-014 7.55382e-014
rhumerus 21.647 25.9629 -68.2883
rradius 45.0582
rwrist 14.3805
rhand -16.9718 -44.9665
rfingers 7.12502
rthumb 9.26258 285.257
lclavicle -5.79457e-014 7.55382e-014
lhumerus -53.0318 10.535 7.79968
lradius 48.3665
lwrist 4.14026
lhand -17.2904 -21.2592
lfingers 7.12502
lthumb 8.95517 8.53077
rfemur 1.00614 -13.2317 26.8639
rtibia 52.605
rfoot -27.7033 -2.25283
rtoes 3.21066
lfemur -26.1737 -5.53953 -29.4266
ltibia 51.0384
lfoot -19.3485 3.81878
ltoes 7.52168
1074
root 8.06284 14.3039 -33.392 172.19 -16.9962 181.139
lowerback 10.4134 7.16738 7.39742
upperback -0.463841 10.4933 3.04755
thorax -5.53829 4.91757 -2.36969
lowerneck 8.7401 -11.6215 -12.8857
upperneck 12.1133 -17.3433 -1.98094
head 3.52848 -9.55521 1.24298
rclavicle -1.2921e-015 3.18055e-014
rhumerus 19.9572 25.7544 -69.1443
rradius 45.767
rwrist 14.249
rhand -17.7284 -45.0235
rfingers 7.12502
rthumb 8.53247 285.169
lclavicle -1.2921e-015 3.18055e-014
lhumerus -52.8778 10.3221 8.33167
lradius 48.85
lwrist 4.52515
lhand -15.1757 -20.1056
lfingers 7.12502
lthumb 10.9953 9.58648
rfemur 1.18359 -13.854 25.8882
rtibia 52.3022
rfoot -26.5504 -1.05005
rtoes 3.29283
lfemur -25.3916 -5.08823 -30.0319
ltibia 49.9306
lfoot -19.6959 2.41171
ltoes 11.6519
1075
root 8.04125 14.3563 -33.5105 172.03 -17.1106 180.962
lowerback 10.1023 7.29444 7.48894
upperback -0.620085 10.6572 2.87503
thorax -5.4679 5.00125 -2.57884
lowerneck 8.57224 -11.6693 -13.3632
upperneck 13.0615 -17.4989 -1.66909
head 4.00333 -9.70932 1.33909
rclavicle -5.09883e-014 -5.80451e-014
rhumerus 17.9388 25.5072 -70.0713
rradius 46.5977
rwrist 14.28
rhand -18.3798 -45.383
rfingers 7.12502
rthumb 7.90376 284.785
lclavicle -5.09883e-014 -5.80451e-014
lhumerus -52.4323 10.2371 8.71193
lradius 49.0285
lwrist 4.47232
lhand -12.9684 -19.5981
lfingers 7.12502
lthumb 13.1237 9.96894
rfemur 1.84964 -13.83 25.3883
rtibia 52.1945
rfoot -25.2171 -0.0806152
rtoes 3.86787
lfemur -23.9994 -4.03173 -30.1199
ltibia 48.7937
lfoot -19.7121 1.20715
ltoes 9.40207
1076
root 8.01507 14.4009 -33.5938 172.481 -17.6581 180.497
lowerback 9.70635 7.31142 7.50073
upperback -0.966369 10.6712 2.51895
thorax -5.54304 5.00519 -2.92065
lowerneck 8.19007 -11.802 -13.8291
upperneck 14.5025 -17.7473 -1.57266
head 4.20672 -9.92099 1.21232
rclavicle -8.24956e-015 -5.00937e-014
rhumerus 15.9151 25.3541 -70.8032
rradius 47.5328
rwrist 14.2014
rhand -19.0859 -45.7898
rfingers 7.12502
rthumb 7.22222 284.353
lclavicle -8.24956e-015 -5.00937e-014
lhumerus -52.0697 10.0767 9.33162
lradius 49.2086
lwrist 4.51073
lhand -11.0244 -19.537
lfingers 7.12502
lthumb 14.997 9.89992
rfemur 1.76046 -14.3081 24.5101
rtibia 52.3945
rfoot -23.8199 0.850002
rtoes 2.5135
lfemur -23.307 -3.44448 -30.5999
ltibia 47.6453
lfoot -19.6455 0.147394
ltoes 5.78031
